<?xml version="1.0" standalone="no"?>
<!DOCTYPE svg PUBLIC "-//W3C//DTD SVG 20010904//EN"
 "http://www.w3.org/TR/2001/REC-SVG-20010904/DTD/svg10.dtd">
<svg version="1.0" xmlns="http://www.w3.org/2000/svg"
 width="904.000000pt" height="276.000000pt" viewBox="0 0 904.000000 276.000000"
 preserveAspectRatio="xMidYMid meet">

<g transform="translate(0.000000,276.000000) scale(0.100000,-0.100000)"
fill="#000000" stroke="none">
<path d="M972 2293 l-423 -246 3 -496 3 -495 105 -61 c58 -34 250 -146 427
-249 l321 -187 184 107 c100 58 230 134 288 168 58 34 167 98 242 141 l138 80
0 497 0 497 -42 25 c-24 13 -214 124 -422 245 -209 122 -385 221 -390 220 -6
0 -201 -111 -434 -246z m758 -191 l305 -179 3 -370 2 -370 -112 -65 c-62 -36
-195 -113 -296 -172 -245 -143 -221 -135 -279 -99 -26 17 -166 99 -310 183
l-263 152 -2 366 c-2 235 1 369 7 375 26 22 611 357 624 357 9 0 153 -80 321
-178z"/>
<path d="M1040 1565 l0 -445 268 0 c294 0 371 10 448 55 148 87 133 326 -25
392 l-34 14 43 41 c52 51 70 91 70 163 0 104 -55 170 -171 206 -53 17 -93 19
-330 19 l-269 0 0 -445z m478 294 c80 -17 116 -76 88 -143 -24 -58 -60 -69
-223 -74 l-143 -4 0 116 0 116 115 0 c62 0 136 -5 163 -11z m99 -387 c56 -40
56 -134 0 -176 -26 -19 -44 -21 -203 -24 l-174 -3 0 116 0 117 173 -4 c160 -3
174 -5 204 -26z"/>
<path d="M2487 2365 c-62 -32 -88 -95 -67 -159 31 -95 186 -116 255 -35 33 40
35 114 3 154 -40 52 -132 71 -191 40z"/>
<path d="M3915 2321 c-87 -21 -135 -75 -135 -149 0 -36 6 -50 33 -77 20 -20
52 -38 78 -45 119 -30 147 -41 154 -57 10 -27 -29 -53 -79 -53 -22 1 -66 9
-96 20 -30 10 -58 16 -62 12 -3 -4 -13 -24 -22 -44 -14 -36 -14 -38 7 -49 37
-20 120 -39 172 -39 75 0 125 18 167 60 34 34 38 43 38 88 0 82 -45 119 -175
146 -66 14 -86 27 -83 55 5 46 62 51 184 16 17 -5 24 1 39 35 18 41 18 43 1
56 -39 28 -154 41 -221 25z"/>
<path d="M4382 2311 c-62 -21 -117 -70 -143 -126 -23 -50 -25 -142 -3 -193 48
-117 191 -178 325 -139 232 68 237 386 7 461 -65 21 -120 20 -186 -3z m169
-114 c66 -44 76 -146 20 -209 -23 -26 -37 -32 -83 -36 -53 -4 -58 -2 -93 30
-33 30 -39 42 -42 89 -4 45 -1 60 19 89 43 63 117 79 179 37z"/>
<path d="M4810 2085 l0 -235 65 0 65 0 0 80 0 80 105 0 105 0 0 50 0 49 -102
3 -103 3 -3 53 -3 52 120 0 121 0 0 50 0 50 -185 0 -185 0 0 -235z"/>
<path d="M5200 2270 l0 -50 75 0 75 0 0 -185 0 -185 65 0 65 0 0 185 0 185 73
0 72 0 -1 47 -1 48 -211 3 -212 2 0 -50z"/>
<path d="M5650 2308 c1 -7 33 -112 73 -233 l73 -220 71 -3 72 -3 41 133 c23
73 45 137 49 141 7 7 67 -164 86 -245 7 -27 9 -28 79 -28 l72 0 34 103 c18 56
52 162 76 235 l42 132 -62 0 -62 0 -47 -150 c-26 -82 -50 -150 -52 -150 -2 0
-26 68 -52 150 l-47 151 -60 -3 -59 -3 -50 -150 c-38 -113 -52 -145 -58 -130
-5 11 -27 80 -50 153 l-42 132 -64 0 c-44 0 -63 -4 -63 -12z"/>
<path d="M6537 2103 c-53 -120 -99 -226 -102 -235 -6 -16 0 -18 58 -18 l65 0
18 45 17 45 102 0 103 0 19 -45 18 -45 67 0 c66 0 67 0 58 23 -6 12 -52 117
-104 232 l-93 210 -65 3 -65 3 -96 -218z m192 9 l30 -72 -60 0 c-32 0 -59 3
-59 7 0 12 53 143 56 140 2 -2 17 -36 33 -75z"/>
<path d="M7010 2086 l0 -236 65 0 64 0 3 63 3 62 36 3 c33 3 37 0 79 -63 l45
-65 68 0 c52 0 66 3 61 13 -4 6 -25 38 -47 69 l-40 58 41 43 c79 87 61 206
-41 259 -37 20 -60 23 -189 26 l-148 4 0 -236z m254 123 c45 -21 52 -85 12
-118 -9 -8 -42 -14 -74 -15 l-57 -1 -3 59 c-2 32 -1 65 2 72 7 17 85 19 120 3z"/>
<path d="M7517 2313 c-9 -8 -9 -426 -1 -447 5 -14 32 -16 190 -16 l184 0 0 50
0 50 -125 0 -125 0 0 45 0 45 105 0 105 0 0 50 0 50 -105 0 -105 0 0 40 0 40
120 0 120 0 0 50 0 50 -178 0 c-98 0 -182 -3 -185 -7z"/>
<path d="M2440 1576 l0 -414 23 -6 c34 -9 195 -7 201 3 3 4 6 192 6 417 l1
409 -115 3 -116 3 0 -415z"/>
<path d="M2800 1900 l0 -90 210 0 c116 0 210 -3 210 -6 0 -3 -97 -120 -215
-260 l-216 -255 3 -67 3 -67 370 0 370 0 3 88 3 87 -221 0 c-145 0 -220 4
-220 10 0 6 94 122 210 258 l210 247 0 73 0 72 -360 0 -360 0 0 -90z"/>
<path d="M3920 1381 c-88 -18 -140 -73 -140 -147 0 -74 42 -109 175 -143 93
-23 112 -42 79 -75 -22 -22 -102 -20 -166 4 -28 11 -54 17 -56 15 -3 -3 -13
-23 -23 -46 l-19 -40 48 -22 c37 -17 67 -21 142 -22 86 0 100 3 141 27 56 33
74 71 70 145 0 13 -13 37 -29 54 -22 25 -47 36 -127 58 -92 24 -100 28 -100
51 0 48 64 62 151 32 l51 -18 18 44 c22 53 16 60 -62 78 -62 15 -98 16 -153 5z"/>
<path d="M4398 1377 c-102 -29 -170 -111 -176 -214 -7 -107 37 -185 132 -236
59 -31 193 -31 252 0 175 93 176 339 3 426 -67 33 -145 42 -211 24z m148 -116
c111 -68 65 -251 -63 -251 -24 0 -57 7 -72 15 -34 17 -61 70 -61 120 0 103
110 169 196 116z"/>
<path d="M6605 1383 c-87 -19 -151 -66 -187 -137 -29 -56 -28 -149 2 -210 73
-151 303 -184 426 -60 107 106 90 281 -36 365 -56 38 -144 56 -205 42z m111
-119 c36 -17 50 -36 65 -88 14 -47 0 -94 -38 -132 -28 -29 -41 -34 -79 -34
-88 0 -134 47 -134 139 0 102 93 159 186 115z"/>
<path d="M7637 1376 c-90 -25 -141 -101 -118 -177 15 -50 50 -73 147 -100 98
-27 114 -35 114 -59 0 -50 -108 -53 -221 -6 -23 10 -59 -82 -38 -95 60 -39
238 -47 304 -14 98 49 115 173 31 225 -17 10 -67 28 -111 40 -86 23 -111 39
-102 64 15 38 114 44 179 10 27 -14 27 -14 48 33 11 25 17 50 13 53 -34 30
-178 46 -246 26z"/>
<path d="M4810 1145 l0 -235 180 0 180 0 0 50 0 49 -112 3 -113 3 -3 183 -2
182 -65 0 -65 0 0 -235z"/>
<path d="M5221 1212 c4 -167 4 -169 34 -217 36 -58 88 -87 165 -93 73 -5 132
12 177 51 56 49 62 74 64 258 l1 164 -60 3 -60 3 -4 -160 c-3 -153 -4 -161
-27 -185 -19 -20 -34 -26 -66 -26 -32 0 -47 6 -66 26 -23 24 -24 32 -27 185
l-4 159 -65 0 -65 0 3 -168z"/>
<path d="M5717 1345 c-10 -59 -3 -65 74 -65 l69 0 0 -185 0 -185 65 0 65 0 2
183 3 182 73 3 73 3 -3 47 -3 47 -206 3 -206 2 -6 -35z"/>
<path d="M6190 1145 l0 -235 65 0 65 0 0 235 0 235 -65 0 -65 0 0 -235z"/>
<path d="M6990 1145 l0 -235 65 0 65 0 0 120 c0 66 3 120 8 119 4 0 51 -54
105 -120 l99 -119 54 0 54 0 0 235 0 235 -65 0 -64 0 -3 -124 -3 -125 -103
125 -103 124 -55 0 -54 0 0 -235z"/>
<path d="M1870 485 c0 -2 18 -32 40 -66 29 -46 40 -73 40 -101 0 -37 2 -39 27
-36 25 3 28 8 31 47 3 30 15 61 38 95 19 28 34 54 34 58 0 5 -13 8 -28 8 -23
0 -33 -8 -48 -35 -10 -19 -22 -35 -25 -35 -4 0 -17 16 -29 35 -17 27 -28 35
-51 35 -16 0 -29 -2 -29 -5z"/>
<path d="M2228 475 c-60 -33 -59 -149 2 -180 34 -18 89 -19 123 -4 65 30 70
151 7 184 -36 19 -97 19 -132 0z m106 -47 c9 -12 16 -32 16 -43 0 -51 -61 -85
-90 -50 -16 20 -17 80 -1 99 19 23 57 20 75 -6z"/>
<path d="M2520 410 c0 -66 3 -83 20 -100 25 -25 61 -34 107 -27 62 10 73 29
73 124 l0 84 -27 -3 c-27 -3 -28 -5 -33 -83 -5 -74 -7 -80 -28 -83 -41 -6 -52
14 -52 94 l0 74 -30 0 -30 0 0 -80z"/>
<path d="M2850 385 l0 -105 30 0 c28 0 30 2 30 40 0 29 4 40 15 40 8 0 24 -18
35 -40 17 -33 26 -40 50 -40 35 0 35 0 10 49 -19 38 -19 39 0 56 11 10 20 31
20 46 0 43 -32 59 -117 59 l-73 0 0 -105z m125 40 c0 -15 -8 -21 -32 -23 -30
-3 -33 -1 -33 23 0 24 3 26 33 23 24 -2 32 -8 32 -23z"/>
<path d="M3330 385 l0 -108 70 5 c94 7 120 29 120 103 0 75 -27 98 -120 103
l-70 4 0 -107z m104 55 c23 -8 26 -15 26 -54 0 -35 -5 -48 -19 -56 -42 -22
-51 -14 -51 48 0 50 5 72 16 72 1 0 14 -4 28 -10z"/>
<path d="M3640 385 l0 -105 30 0 30 0 0 105 0 105 -30 0 -30 0 0 -105z"/>
<path d="M3874 480 c-69 -27 -73 -159 -7 -189 31 -14 78 -14 105 0 14 8 23 8
31 0 21 -21 27 -11 27 44 l0 55 -50 0 c-37 0 -50 -4 -50 -14 0 -8 10 -16 23
-18 25 -3 26 -18 3 -33 -9 -6 -25 -6 -43 1 -24 8 -28 15 -31 54 -3 33 1 47 14
57 24 17 59 16 74 -2 16 -19 60 -20 60 -1 0 8 -12 24 -26 35 -28 22 -90 27
-130 11z"/>
<path d="M4160 385 l0 -105 30 0 30 0 0 105 0 105 -30 0 -30 0 0 -105z"/>
<path d="M4330 465 c0 -22 4 -25 35 -25 l35 0 0 -80 0 -80 30 0 30 0 0 80 0
80 35 0 c31 0 35 3 35 25 l0 25 -100 0 -100 0 0 -25z"/>
<path d="M4656 390 c-20 -56 -36 -103 -36 -106 0 -2 14 -4 30 -4 20 0 30 5 30
15 0 11 12 15 44 15 30 0 46 -5 50 -15 4 -12 66 -23 66 -12 0 1 -17 47 -38
102 -37 100 -37 100 -73 103 l-36 3 -37 -101z m84 31 c0 -5 3 -23 6 -40 6 -28
4 -31 -20 -31 -29 0 -31 4 -15 49 10 28 29 43 29 22z"/>
<path d="M4950 385 l0 -106 83 3 c74 3 82 5 82 23 0 17 -8 21 -55 25 l-55 5
-2 60 c-1 33 -2 68 -2 78 -1 11 -9 17 -26 17 l-25 0 0 -105z"/>
<path d="M5488 463 c-1 -16 0 -45 1 -65 1 -20 -3 -46 -9 -58 -13 -23 -38 -27
-46 -5 -9 23 -54 19 -54 -4 0 -45 91 -68 138 -35 20 14 22 23 22 105 0 88 0
89 -25 89 -20 0 -25 -5 -27 -27z"/>
<path d="M5690 462 c-40 -40 -43 -106 -6 -149 22 -25 31 -28 85 -28 82 0 106
23 106 100 0 73 -23 97 -99 103 -51 4 -57 2 -86 -26z m114 -28 c18 -18 21 -66
6 -95 -12 -22 -59 -26 -78 -7 -17 17 -15 84 4 102 8 9 24 16 34 16 10 0 26 -7
34 -16z"/>
<path d="M5996 482 c-3 -5 -4 -41 -3 -81 3 -66 6 -76 30 -97 42 -36 109 -34
148 5 27 27 29 35 29 105 l0 76 -30 0 -30 0 0 -73 c0 -78 -9 -97 -47 -97 -31
0 -43 28 -43 104 0 63 -1 66 -24 66 -14 0 -27 -4 -30 -8z"/>
<path d="M6327 483 c-4 -3 -7 -51 -7 -105 l0 -98 30 0 c28 0 30 2 30 40 0 32
4 40 18 40 12 0 25 -14 37 -40 16 -35 22 -40 51 -40 l34 0 -22 45 c-20 40 -20
46 -6 57 28 23 29 58 3 84 -21 21 -34 24 -93 24 -38 0 -72 -3 -75 -7z m123
-48 c17 -21 3 -35 -36 -35 -30 0 -34 3 -34 25 0 21 5 25 29 25 16 0 34 -7 41
-15z"/>
<path d="M6630 384 l0 -105 28 3 c25 3 27 7 28 46 1 23 4 45 6 48 3 3 25 -18
48 -45 34 -40 50 -51 72 -51 l29 0 -3 103 -3 102 -27 3 c-27 3 -28 2 -28 -47
0 -28 -3 -51 -7 -51 -5 0 -26 22 -48 50 -30 37 -47 49 -67 50 l-28 0 0 -106z"/>
<path d="M6960 385 l0 -105 90 0 c83 0 90 2 90 20 0 16 -8 19 -57 22 -51 3
-58 6 -61 26 -3 20 0 22 47 22 44 0 51 3 51 20 0 17 -7 20 -51 20 -43 0 -50 3
-47 18 2 13 15 18 61 20 48 2 58 6 53 18 -3 9 -6 18 -6 20 0 2 -38 4 -85 4
l-85 0 0 -105z"/>
<path d="M7240 485 c0 -2 18 -32 40 -66 29 -46 40 -73 40 -101 0 -37 2 -39 28
-36 24 3 27 7 30 46 2 29 15 62 38 97 19 30 34 57 34 60 0 3 -13 5 -28 5 -23
0 -33 -8 -48 -35 -10 -19 -22 -35 -25 -35 -4 0 -16 16 -28 35 -16 28 -27 35
-51 35 -16 0 -30 -2 -30 -5z"/>
<path d="M1702 363 c2 -12 13 -18 33 -18 20 0 31 6 33 18 3 14 -4 17 -33 17
-29 0 -36 -3 -33 -17z"/>
<path d="M7552 363 c2 -12 14 -19 36 -21 27 -3 32 0 32 17 0 17 -6 21 -36 21
-28 0 -35 -3 -32 -17z"/>
</g>
</svg>
